<?xml version="1.0" encoding="utf-8"?>
<!-- Generator: Adobe Illustrator 16.0.4, SVG Export Plug-In . SVG Version: 6.00 Build 0)  -->
<!DOCTYPE svg PUBLIC "-//W3C//DTD SVG 1.1//EN" "http://www.w3.org/Graphics/SVG/1.1/DTD/svg11.dtd">
<svg version="1.1" xmlns="http://www.w3.org/2000/svg" xmlns:xlink="http://www.w3.org/1999/xlink" x="0px" y="0px" width="48px"
	 height="48px" viewBox="0 0 48 48" enable-background="new 0 0 48 48" xml:space="preserve">
<g id="Layer_1" display="none">
	<path display="inline" fill="none" d="M0,0h48v48H0V0z"/>
	<g display="inline">
		<g>
			<g>
				<path fill="#1D1D1B" d="M6.513,17.29c11.571,0,23.142,0,34.712,0c0.806,0,0.806-1.25,0-1.25c-11.57,0-23.141,0-34.712,0
					C5.707,16.04,5.707,17.29,6.513,17.29L6.513,17.29z"/>
			</g>
		</g>
		<g>
			<g>
				<path fill="#1D1D1B" d="M6.513,34.107c11.57,0,23.141,0,34.711,0c0.806,0,0.806-1.25,0-1.25c-11.57,0-23.141,0-34.711,0
					C5.707,32.857,5.707,34.107,6.513,34.107L6.513,34.107z"/>
			</g>
		</g>
		<g>
			<g>
				<path fill="#1D1D1B" d="M8.005,14.063c10.777,0,21.555,0,32.332,0c0.806,0,0.806-1.25,0-1.25c-10.777,0-21.555,0-32.332,0
					C7.199,12.813,7.199,14.063,8.005,14.063L8.005,14.063z"/>
			</g>
		</g>
		<line fill="none" stroke="#1D1D1B" stroke-width="0.25" stroke-miterlimit="10" x1="9.618" y1="13.438" x2="38.878" y2="13.438"/>
		
			<rect x="9.618" y="19.659" fill="none" stroke="#1D1D1B" stroke-width="1.2" stroke-miterlimit="10" width="29.26" height="13.823"/>
		<line fill="none" stroke="#1D1D1B" stroke-width="1.5" stroke-miterlimit="10" x1="14.303" y1="19.659" x2="14.303" y2="33.482"/>
		<line fill="none" stroke="#1D1D1B" stroke-width="1.5" stroke-miterlimit="10" x1="20.446" y1="19.659" x2="20.446" y2="33.482"/>
		<line fill="none" stroke="#1D1D1B" stroke-width="1.5" stroke-miterlimit="10" x1="28.202" y1="19.788" x2="28.202" y2="33.611"/>
		<line fill="none" stroke="#1D1D1B" stroke-width="1.5" stroke-miterlimit="10" x1="34.27" y1="19.659" x2="34.27" y2="33.482"/>
		
			<rect x="8.005" y="16.665" fill="none" stroke="#1D1D1B" stroke-width="1.2" stroke-miterlimit="10" width="32.332" height="2.994"/>
		<polyline fill="none" stroke="#1D1D1B" stroke-miterlimit="10" points="9.618,16.664 9.618,13.438 38.878,13.438 38.878,16.665 		
			"/>
		<polyline fill="none" stroke="#1D1D1B" stroke-width="1.5" stroke-miterlimit="10" points="18.757,16.664 18.757,11.903 
			22.52,11.903 29.508,11.903 29.508,16.665 		"/>
		<polygon fill="#1D1D1B" stroke="#1D1D1B" stroke-width="0.25" stroke-miterlimit="10" points="23.263,7.91 23.565,7.91 
			24.551,7.91 25.554,11.903 22.499,11.903 		"/>
	</g>
</g>
<g id="Layer_2">
	<g>
		<line fill="#1D1D1B" x1="6.853" y1="13.916" x2="40.27" y2="13.916"/>
		<g>
			<path fill="#1D1D1B" d="M6.853,15.166c11.139,0,22.278,0,33.417,0c1.611,0,1.611-2.5,0-2.5c-11.139,0-22.278,0-33.417,0
				C5.24,12.666,5.24,15.166,6.853,15.166L6.853,15.166z"/>
		</g>
	</g>
	<g>
		<line fill="#1D1D1B" x1="14.499" y1="10.75" x2="33.082" y2="10.75"/>
		<g>
			<path fill="#1D1D1B" d="M14.499,12c6.194,0,12.389,0,18.583,0c1.612,0,1.612-2.5,0-2.5c-6.194,0-12.389,0-18.583,0
				C12.887,9.5,12.887,12,14.499,12L14.499,12z"/>
		</g>
	</g>
	
		<rect x="19.977" y="6.833" fill="#1D1D1B" stroke="#1D1D1B" stroke-width="0.25" stroke-miterlimit="10" width="7.168" height="3"/>
	<g>
		<line fill="#1D1D1B" x1="6.853" y1="40.594" x2="40.27" y2="40.594"/>
		<g>
			<path fill="#1D1D1B" d="M6.853,41.844c11.139,0,22.278,0,33.417,0c1.612,0,1.612-2.5,0-2.5c-11.139,0-22.278,0-33.417,0
				C5.24,39.344,5.24,41.844,6.853,41.844L6.853,41.844z"/>
		</g>
	</g>
	
		<rect x="10.249" y="17.833" fill="#1D1D1B" stroke="#1D1D1B" stroke-width="1.5" stroke-miterlimit="10" width="5.833" height="19.167"/>
	
		<rect x="20.644" y="17.833" fill="#1D1D1B" stroke="#1D1D1B" stroke-width="1.5" stroke-miterlimit="10" width="5.833" height="19.167"/>
	
		<rect x="31.521" y="17.829" fill="#1D1D1B" stroke="#1D1D1B" stroke-width="1.5" stroke-miterlimit="10" width="5.833" height="19.167"/>
</g>
</svg>
